<svg width="135" height="26" viewBox="0 0 135 26" fill="none" xmlns="http://www.w3.org/2000/svg">
<path fill-rule="evenodd" clip-rule="evenodd" d="M16.7505 5.59969C16.7 5.55952 16.6145 5.49669 16.5599 5.46064C16.5053 5.4246 16.3982 5.36486 16.322 5.32778C16.2458 5.2907 16.1273 5.24229 16.0593 5.21963C15.9914 5.19697 15.8739 5.16607 15.7988 5.15062C15.7236 5.13517 15.5959 5.11663 15.5135 5.11045C15.4331 5.10427 15.2992 5.10427 15.2189 5.11045C15.1365 5.11663 15.0119 5.13414 14.9408 5.14753C14.8697 5.16092 14.6946 5.21242 14.5514 5.26289C14.3094 5.34838 14.2837 5.35353 14.1498 5.34941C14.0509 5.34735 13.9716 5.33396 13.8933 5.30512C13.8417 5.2862 13.76 5.25724 13.6972 5.23501C13.6848 5.2306 13.6731 5.22646 13.6626 5.22272C13.5977 5.19903 13.4638 5.16401 13.3639 5.14444C13.2485 5.12178 13.1054 5.10839 12.9663 5.10942C12.8468 5.10942 12.6789 5.12075 12.5924 5.13723C12.5059 5.15165 12.3586 5.18976 12.2649 5.22169C12.1732 5.25362 12.0383 5.31027 11.9672 5.34632C11.8962 5.38237 11.7726 5.45858 11.6922 5.5142C11.5697 5.60175 11.5212 5.64604 11.3678 5.80775C11.2236 5.96019 11.1711 6.02507 11.1051 6.13219C11.0598 6.20635 10.998 6.31965 10.9671 6.38557C10.9362 6.45149 10.893 6.56066 10.8713 6.62967C10.8487 6.69765 10.8178 6.81919 10.8013 6.89953C10.7838 6.98708 10.7724 7.14878 10.7714 7.30431C10.7704 7.46602 10.7827 7.6164 10.8013 7.70703C10.8178 7.78737 10.8466 7.90067 10.8662 7.96144C10.8857 8.02221 10.9259 8.13654 10.9558 8.2179C10.999 8.33532 11.0093 8.39094 11.0104 8.50321C11.0104 8.59797 10.999 8.67522 10.9754 8.74216C10.9558 8.79675 10.9166 8.90593 10.8888 8.98524C10.861 9.06455 10.8239 9.20257 10.8064 9.29217C10.7889 9.38178 10.7714 9.54555 10.7694 9.65473C10.7663 9.76494 10.7745 9.92355 10.7869 10.008C10.7992 10.0925 10.827 10.2253 10.8507 10.3046C10.8734 10.385 10.9146 10.5024 10.9434 10.5683L10.9939 10.6868L2.2648 19.4262L3.24328 20.4149L5.34445 18.3138L6.19933 19.1687L4.91185 20.4664L5.89034 21.4449L7.18811 20.1574L7.9297 20.899L8.91848 19.9103L8.1769 19.1687L9.46437 17.8709L8.48589 16.8924L7.18811 18.1799L6.33323 17.325L11.9878 11.6704C12.0661 11.7116 12.1537 11.7477 12.2319 11.7765C12.3102 11.8053 12.4523 11.8445 12.5471 11.863C12.6408 11.8826 12.8077 11.8991 12.9189 11.9011C13.0281 11.9032 13.1847 11.8949 13.265 11.8846C13.3453 11.8723 13.4689 11.8476 13.539 11.829C13.61 11.8094 13.7254 11.7703 13.7985 11.7404C13.8727 11.7116 13.9788 11.6797 14.0365 11.6694C14.0952 11.6601 14.1868 11.657 14.2425 11.6632C14.2981 11.6694 14.3867 11.69 14.4412 11.7095C14.4606 11.7165 14.486 11.7255 14.5139 11.7354C14.5644 11.7534 14.6231 11.7743 14.6689 11.7909C14.7399 11.8167 14.8635 11.8496 14.9449 11.8651C15.0252 11.8815 15.153 11.898 15.2281 11.9011C15.3023 11.9052 15.4259 11.9052 15.5021 11.9011C15.5783 11.897 15.7102 11.8805 15.7957 11.863C15.8812 11.8455 16.0109 11.8105 16.0872 11.7837C16.1623 11.7559 16.2736 11.7106 16.3343 11.6807C16.3951 11.6508 16.494 11.5952 16.5548 11.555C16.6145 11.5159 16.7227 11.4345 16.7947 11.3727C16.8771 11.3027 16.9647 11.2152 17.0316 11.1358C17.0893 11.0679 17.1666 10.968 17.2016 10.9144C17.2366 10.8629 17.2964 10.7578 17.3345 10.6827C17.3715 10.6064 17.4241 10.4818 17.4488 10.4056C17.4756 10.3294 17.5096 10.1965 17.526 10.112C17.5435 10.0266 17.559 9.8772 17.5631 9.78039C17.5662 9.68254 17.56 9.53216 17.5487 9.44667C17.5374 9.36118 17.5126 9.22935 17.4931 9.1521C17.4725 9.07588 17.4313 8.95022 17.4004 8.874C17.3705 8.79675 17.3386 8.69891 17.3303 8.65565C17.3211 8.61342 17.318 8.52587 17.32 8.46201C17.3242 8.38991 17.3437 8.29824 17.3726 8.21791C17.3892 8.1721 17.41 8.11347 17.428 8.06296C17.4379 8.03509 17.447 8.00969 17.4539 7.99028C17.4735 7.93569 17.5054 7.81106 17.525 7.71115C17.5487 7.59477 17.5611 7.45057 17.56 7.30328C17.5611 7.17453 17.5477 7.00871 17.5312 6.92013C17.5137 6.83464 17.4776 6.69559 17.4498 6.6101C17.421 6.52565 17.3684 6.3969 17.3324 6.32583C17.2963 6.25476 17.2407 6.15794 17.2088 6.10953C17.1769 6.06112 17.1089 5.96843 17.0543 5.90354C17.0007 5.83762 16.9317 5.75831 16.8998 5.72844C16.8679 5.69857 16.8009 5.63986 16.7505 5.59969ZM15.777 6.61406C15.7348 6.58831 15.6555 6.55226 15.5999 6.53372C15.5411 6.51415 15.4484 6.49973 15.3753 6.4987C15.2651 6.49767 15.2188 6.509 14.9983 6.58522C14.8593 6.63363 14.6811 6.68616 14.6008 6.70264C14.5204 6.71912 14.3876 6.73663 14.3052 6.74281C14.2228 6.74693 14.095 6.74899 14.0209 6.74281C13.9467 6.73663 13.8128 6.71809 13.7232 6.70058C13.6336 6.68307 13.4997 6.64599 13.4245 6.61818C13.3493 6.59037 13.2443 6.55329 13.1907 6.53475C13.1361 6.51724 13.0445 6.49973 12.9858 6.4987C12.927 6.49561 12.8344 6.50591 12.7808 6.52033C12.7262 6.53372 12.6397 6.56668 12.5872 6.59449C12.5161 6.6326 12.4687 6.66968 12.3904 6.74796C12.307 6.83345 12.2792 6.8695 12.239 6.95705C12.2112 7.01369 12.1813 7.09918 12.1721 7.14553C12.1618 7.19085 12.1566 7.2784 12.1587 7.33814C12.1607 7.39788 12.1783 7.49161 12.1968 7.54722C12.2018 7.56118 12.2079 7.57843 12.2148 7.59764C12.2347 7.65357 12.2606 7.72609 12.2813 7.78206C12.3091 7.85725 12.342 7.97055 12.3564 8.03647C12.3709 8.10239 12.3863 8.21465 12.3945 8.28675C12.4018 8.35988 12.4048 8.48039 12.4038 8.55558C12.4018 8.6318 12.3935 8.74303 12.3863 8.8038C12.3781 8.86354 12.3564 8.97169 12.3389 9.04482C12.3204 9.11692 12.2771 9.25081 12.2431 9.34042C12.2092 9.43003 12.1741 9.53509 12.168 9.57423C12.1607 9.61234 12.1556 9.68753 12.1577 9.74109C12.1597 9.79464 12.17 9.87086 12.1813 9.91103C12.1916 9.95223 12.2225 10.0264 12.2514 10.0779C12.2874 10.1469 12.3297 10.1994 12.4028 10.2726C12.48 10.3498 12.5274 10.3848 12.6078 10.426C12.6654 10.4569 12.7561 10.4899 12.8086 10.4992C12.8611 10.5084 12.9456 10.5146 12.995 10.5146C13.0527 10.5125 13.1495 10.4899 13.2608 10.4507C13.2956 10.4389 13.3335 10.4258 13.3701 10.4132C13.4353 10.3907 13.4966 10.3696 13.5296 10.3591C13.5811 10.3426 13.6892 10.3168 13.7706 10.3014C13.852 10.2859 13.9931 10.2705 14.0847 10.2674C14.1764 10.2643 14.3186 10.2684 14.3999 10.2777C14.4813 10.287 14.6111 10.3096 14.6893 10.3282C14.7666 10.3477 14.9036 10.392 14.9932 10.426C15.0828 10.46 15.1879 10.495 15.227 10.5012C15.2651 10.5084 15.3413 10.5146 15.3959 10.5136C15.4505 10.5125 15.5442 10.495 15.604 10.4765C15.6637 10.4559 15.7533 10.4116 15.8048 10.3786C15.8687 10.3374 15.9212 10.2911 15.9696 10.2344C16.0088 10.1891 16.0613 10.1119 16.086 10.0624C16.1118 10.014 16.1416 9.93266 16.154 9.88322C16.1663 9.83378 16.1746 9.74109 16.1715 9.67826C16.1674 9.6144 16.1468 9.5114 16.1251 9.44857C16.1131 9.41586 16.0968 9.36959 16.0803 9.32274C16.0656 9.28107 16.0507 9.23895 16.0386 9.20549C16.0129 9.13443 15.9799 9.00671 15.9624 8.92122C15.9428 8.82543 15.9315 8.6699 15.9305 8.5082C15.9315 8.33207 15.9418 8.19405 15.9655 8.07767C15.9851 7.98394 16.0263 7.83974 16.0561 7.75631C16.087 7.67391 16.1251 7.56783 16.1396 7.52251C16.155 7.47616 16.1694 7.37728 16.1694 7.30312C16.1694 7.22896 16.1591 7.13214 16.1457 7.08991C16.1324 7.04562 16.0942 6.96426 16.0613 6.90658C16.0252 6.84581 15.9696 6.77371 15.9264 6.73251C15.8862 6.69234 15.8192 6.63981 15.777 6.61406Z" fill="black"/>
<path fill-rule="evenodd" clip-rule="evenodd" d="M3.24954 5.59969C3.30001 5.55952 3.3855 5.49669 3.44009 5.46064C3.49468 5.4246 3.60179 5.36486 3.67801 5.32778C3.75423 5.2907 3.87268 5.24229 3.94066 5.21963C4.00864 5.19697 4.12605 5.16607 4.20124 5.15062C4.27643 5.13517 4.40415 5.11663 4.48655 5.11045C4.56689 5.10427 4.70078 5.10427 4.78112 5.11045C4.86352 5.11663 4.98815 5.13414 5.05922 5.14753C5.13029 5.16092 5.30538 5.21242 5.44855 5.26289C5.6906 5.34838 5.71635 5.35353 5.85024 5.34941C5.94912 5.34735 6.02843 5.33396 6.10671 5.30512C6.15829 5.2862 6.24001 5.25724 6.30276 5.23501C6.31519 5.2306 6.32687 5.22646 6.33742 5.22272C6.40231 5.19903 6.53621 5.16401 6.63612 5.14444C6.75148 5.12178 6.89464 5.10839 7.03369 5.10942C7.15317 5.10942 7.32106 5.12075 7.40758 5.13723C7.49409 5.15165 7.64138 5.18976 7.73511 5.22169C7.82678 5.25362 7.96171 5.31027 8.03277 5.34632C8.10384 5.38237 8.22744 5.45858 8.30778 5.5142C8.43035 5.60175 8.47876 5.64604 8.63222 5.80775C8.77642 5.96019 8.82895 6.02507 8.89487 6.13219C8.94019 6.20635 9.00199 6.31965 9.03289 6.38557C9.06379 6.45149 9.10704 6.56066 9.12867 6.62967C9.15133 6.69765 9.18223 6.81919 9.19871 6.89953C9.21622 6.98708 9.22755 7.14878 9.22858 7.30431C9.22961 7.46602 9.21725 7.6164 9.19871 7.70703C9.18223 7.78737 9.15339 7.90067 9.13382 7.96144C9.11425 8.02221 9.07409 8.13654 9.04422 8.2179C9.00096 8.33532 8.99066 8.39094 8.98963 8.50321C8.98963 8.59797 9.00096 8.67522 9.02465 8.74216C9.04422 8.79675 9.08335 8.90593 9.11116 8.98524C9.13897 9.06455 9.17605 9.20257 9.19356 9.29217C9.21107 9.38178 9.22858 9.54555 9.23064 9.65473C9.23373 9.76494 9.22549 9.92355 9.21313 10.008C9.20077 10.0925 9.17296 10.2253 9.14927 10.3046C9.12661 10.385 9.08541 10.5024 9.05657 10.5683L9.00611 10.6868L17.7352 19.4262L16.7567 20.4149L14.6556 18.3138L13.8007 19.1687L15.0881 20.4664L14.1097 21.4449L12.8119 20.1574L12.0703 20.899L11.0815 19.9103L11.8231 19.1687L10.5356 17.8709L11.5141 16.8924L12.8119 18.1799L13.6668 17.325L8.01217 11.6704C7.93389 11.7116 7.84635 11.7477 7.76807 11.7765C7.68979 11.8053 7.54765 11.8445 7.45289 11.863C7.35917 11.8826 7.19231 11.8991 7.08107 11.9011C6.97189 11.9032 6.81534 11.8949 6.735 11.8846C6.65466 11.8723 6.53106 11.8476 6.46102 11.829C6.38995 11.8094 6.2746 11.7703 6.20147 11.7404C6.12731 11.7116 6.02122 11.6797 5.96354 11.6694C5.90483 11.6601 5.81316 11.657 5.75754 11.6632C5.70193 11.6694 5.61335 11.69 5.55876 11.7095C5.53936 11.7165 5.51398 11.7255 5.48613 11.7354C5.4356 11.7534 5.37695 11.7743 5.33113 11.7909C5.26006 11.8167 5.13647 11.8496 5.0551 11.8651C4.97476 11.8815 4.84704 11.898 4.77185 11.9011C4.69769 11.9052 4.5741 11.9052 4.49788 11.9011C4.42166 11.897 4.28982 11.8805 4.20433 11.863C4.11884 11.8455 3.98907 11.8105 3.91285 11.7837C3.83766 11.7559 3.72642 11.7106 3.66565 11.6807C3.60488 11.6508 3.50601 11.5952 3.44524 11.555C3.3855 11.5159 3.27735 11.4345 3.20525 11.3727C3.12285 11.3027 3.0353 11.2152 2.96836 11.1358C2.91068 11.0679 2.83343 10.968 2.79841 10.9144C2.76339 10.8629 2.70365 10.7578 2.66554 10.6827C2.62846 10.6064 2.57593 10.4818 2.55121 10.4056C2.52443 10.3294 2.49044 10.1965 2.47396 10.112C2.45645 10.0266 2.441 9.8772 2.43688 9.78039C2.43379 9.68254 2.43997 9.53216 2.4513 9.44667C2.46263 9.36118 2.48735 9.22935 2.50692 9.1521C2.52752 9.07588 2.56872 8.95022 2.59962 8.874C2.62949 8.79675 2.66142 8.69891 2.66966 8.65565C2.67893 8.61342 2.68202 8.52587 2.67996 8.46201C2.67584 8.38991 2.65627 8.29824 2.62743 8.21791C2.61084 8.1721 2.58997 8.11347 2.57198 8.06296C2.56206 8.03509 2.55302 8.00969 2.54606 7.99028C2.52649 7.93569 2.49456 7.81106 2.47499 7.71115C2.4513 7.59477 2.43895 7.45057 2.43997 7.30328C2.43894 7.17453 2.45233 7.00871 2.46881 6.92013C2.48632 6.83464 2.52237 6.69559 2.55018 6.6101C2.57902 6.52565 2.63155 6.3969 2.6676 6.32583C2.70365 6.25476 2.75927 6.15794 2.7912 6.10953C2.82313 6.06112 2.89111 5.96843 2.9457 5.90354C2.99925 5.83762 3.06826 5.75831 3.10019 5.72844C3.13212 5.69857 3.19907 5.63986 3.24954 5.59969ZM4.22307 6.61406C4.2653 6.58831 4.34461 6.55226 4.40023 6.53372C4.45894 6.51415 4.55164 6.49973 4.62476 6.4987C4.73497 6.49767 4.78132 6.509 5.00174 6.58522C5.14079 6.63363 5.31897 6.68616 5.39931 6.70264C5.47965 6.71912 5.61252 6.73663 5.69492 6.74281C5.77731 6.74693 5.90503 6.74899 5.97919 6.74281C6.05335 6.73663 6.18725 6.71809 6.27685 6.70058C6.36646 6.68307 6.50036 6.64599 6.57555 6.61818C6.65074 6.59037 6.7558 6.55329 6.80936 6.53475C6.86394 6.51724 6.95561 6.49973 7.01432 6.4987C7.07303 6.49561 7.16573 6.50591 7.21929 6.52033C7.27388 6.53372 7.36039 6.56668 7.41292 6.59449C7.48399 6.6326 7.53137 6.66968 7.60965 6.74796C7.69308 6.83345 7.72089 6.8695 7.76106 6.95705C7.78887 7.01369 7.81874 7.09918 7.82801 7.14553C7.83831 7.19085 7.84346 7.2784 7.8414 7.33814C7.83934 7.39788 7.82183 7.49161 7.80329 7.54722C7.79828 7.56118 7.79214 7.57843 7.7853 7.59763C7.76537 7.65357 7.73953 7.72609 7.71883 7.78206C7.69102 7.85725 7.65806 7.97055 7.64364 8.03647C7.62922 8.10238 7.61377 8.21465 7.60553 8.28675C7.59832 8.35988 7.59523 8.48039 7.59626 8.55558C7.59832 8.6318 7.60656 8.74303 7.61377 8.8038C7.62201 8.86354 7.64364 8.97169 7.66115 9.04482C7.67969 9.11692 7.72295 9.25081 7.75694 9.34042C7.79093 9.43003 7.82595 9.53509 7.83213 9.57423C7.83934 9.61234 7.84449 9.68753 7.84243 9.74109C7.84037 9.79464 7.83007 9.87086 7.81874 9.91103C7.80844 9.95223 7.77754 10.0264 7.7487 10.0779C7.71265 10.1469 7.67042 10.1994 7.59729 10.2726C7.52004 10.3498 7.47266 10.3848 7.39232 10.426C7.33465 10.4569 7.24401 10.4899 7.19148 10.4992C7.13895 10.5084 7.05449 10.5146 7.00505 10.5146C6.94737 10.5125 6.85055 10.4899 6.73932 10.4507C6.70451 10.4389 6.66664 10.4258 6.63002 10.4132C6.56477 10.3907 6.50348 10.3696 6.47049 10.3591C6.41899 10.3426 6.31084 10.3168 6.22948 10.3014C6.14811 10.2859 6.007 10.2705 5.91533 10.2674C5.82366 10.2643 5.68153 10.2684 5.60016 10.2777C5.51879 10.287 5.38901 10.3096 5.31073 10.3282C5.23348 10.3477 5.0965 10.392 5.00689 10.426C4.91728 10.46 4.81222 10.495 4.77308 10.5012C4.73497 10.5084 4.65875 10.5146 4.60416 10.5136C4.54958 10.5125 4.45585 10.495 4.39611 10.4765C4.33637 10.4559 4.24676 10.4116 4.19526 10.3786C4.1314 10.3374 4.07887 10.2911 4.03046 10.2344C3.99133 10.1891 3.9388 10.1119 3.91408 10.0624C3.88833 10.014 3.85846 9.93266 3.8461 9.88322C3.83374 9.83378 3.8255 9.74109 3.82859 9.67826C3.83271 9.6144 3.85331 9.5114 3.87494 9.44857C3.88693 9.41586 3.90325 9.36959 3.91978 9.32274C3.93448 9.28107 3.94934 9.23895 3.96146 9.2055C3.98721 9.13443 4.02017 9.00671 4.03768 8.92122C4.05724 8.82543 4.06857 8.6699 4.0696 8.5082C4.06857 8.33207 4.05827 8.19405 4.03459 8.07767C4.01502 7.98394 3.97382 7.83974 3.94395 7.75631C3.91305 7.67391 3.87494 7.56783 3.86052 7.52251C3.84507 7.47616 3.83065 7.37728 3.83065 7.30312C3.83065 7.22896 3.84095 7.13214 3.85434 7.08991C3.86773 7.04562 3.90584 6.96426 3.9388 6.90658C3.97485 6.84581 4.03047 6.77371 4.07372 6.73251C4.11389 6.69234 4.18084 6.63981 4.22307 6.61406Z" fill="black"/>
<path d="M25.9 21.24C24.7267 21.24 23.7267 21.0267 22.9 20.6C22.0867 20.1733 21.3867 19.6 20.8 18.88L22.36 17.42C22.8533 18.02 23.3933 18.4733 23.98 18.78C24.58 19.0867 25.26 19.24 26.02 19.24C26.9133 19.24 27.5867 19.04 28.04 18.64C28.4933 18.24 28.72 17.7 28.72 17.02C28.72 16.4733 28.56 16.04 28.24 15.72C27.92 15.4 27.3533 15.16 26.54 15L25.3 14.78C23.94 14.5267 22.92 14.08 22.24 13.44C21.56 12.8 21.22 11.92 21.22 10.8C21.22 10.1867 21.3333 9.63333 21.56 9.14C21.8 8.63333 22.1267 8.21333 22.54 7.88C22.9667 7.53333 23.48 7.26667 24.08 7.08C24.68 6.89333 25.3533 6.8 26.1 6.8C27.1533 6.8 28.0667 6.98667 28.84 7.36C29.6133 7.72 30.2733 8.24667 30.82 8.94L29.24 10.34C28.88 9.87333 28.44 9.5 27.92 9.22C27.4 8.94 26.7533 8.8 25.98 8.8C25.18 8.8 24.56 8.96 24.12 9.28C23.68 9.6 23.46 10.0667 23.46 10.68C23.46 11.2667 23.64 11.7067 24 12C24.36 12.28 24.92 12.4933 25.68 12.64L26.92 12.9C28.32 13.1667 29.34 13.62 29.98 14.26C30.6333 14.9 30.96 15.78 30.96 16.9C30.96 17.5533 30.8467 18.1467 30.62 18.68C30.3933 19.2133 30.06 19.6733 29.62 20.06C29.1933 20.4333 28.6667 20.7267 28.04 20.94C27.4133 21.14 26.7 21.24 25.9 21.24ZM33.5131 6.2H35.6931V15.28H35.7931L37.2331 13.42L39.7331 10.6H42.2731L38.6331 14.62L42.7131 21H40.1131L37.1331 16.04L35.6931 17.6V21H33.5131V6.2ZM48.1009 21.24C47.3543 21.24 46.6876 21.1133 46.1009 20.86C45.5143 20.6067 45.0143 20.2467 44.6009 19.78C44.1876 19.3 43.8676 18.7267 43.6409 18.06C43.4276 17.38 43.3209 16.6267 43.3209 15.8C43.3209 14.9733 43.4276 14.2267 43.6409 13.56C43.8676 12.88 44.1876 12.3067 44.6009 11.84C45.0143 11.36 45.5143 10.9933 46.1009 10.74C46.6876 10.4867 47.3543 10.36 48.1009 10.36C48.8609 10.36 49.5276 10.4933 50.1009 10.76C50.6876 11.0267 51.1743 11.4 51.5609 11.88C51.9476 12.3467 52.2343 12.8933 52.4209 13.52C52.6209 14.1467 52.7209 14.82 52.7209 15.54V16.36H45.5809V16.7C45.5809 17.5 45.8143 18.16 46.2809 18.68C46.7609 19.1867 47.4409 19.44 48.3209 19.44C48.9609 19.44 49.5009 19.3 49.9409 19.02C50.3809 18.74 50.7543 18.36 51.0609 17.88L52.3409 19.14C51.9543 19.78 51.3943 20.2933 50.6609 20.68C49.9276 21.0533 49.0743 21.24 48.1009 21.24ZM48.1009 12.06C47.7276 12.06 47.3809 12.1267 47.0609 12.26C46.7543 12.3933 46.4876 12.58 46.2609 12.82C46.0476 13.06 45.8809 13.3467 45.7609 13.68C45.6409 14.0133 45.5809 14.38 45.5809 14.78V14.92H50.4209V14.72C50.4209 13.92 50.2143 13.28 49.8009 12.8C49.3876 12.3067 48.8209 12.06 48.1009 12.06ZM57.3542 21C56.6076 21 56.0476 20.8133 55.6742 20.44C55.3142 20.0533 55.1342 19.52 55.1342 18.84V6.2H57.3142V19.22H58.7542V21H57.3542ZM64.9173 21.24C64.1707 21.24 63.504 21.1133 62.9173 20.86C62.3307 20.6067 61.8307 20.2467 61.4173 19.78C61.004 19.3 60.684 18.7267 60.4573 18.06C60.244 17.38 60.1373 16.6267 60.1373 15.8C60.1373 14.9733 60.244 14.2267 60.4573 13.56C60.684 12.88 61.004 12.3067 61.4173 11.84C61.8307 11.36 62.3307 10.9933 62.9173 10.74C63.504 10.4867 64.1707 10.36 64.9173 10.36C65.6773 10.36 66.344 10.4933 66.9173 10.76C67.504 11.0267 67.9907 11.4 68.3773 11.88C68.764 12.3467 69.0507 12.8933 69.2373 13.52C69.4373 14.1467 69.5373 14.82 69.5373 15.54V16.36H62.3973V16.7C62.3973 17.5 62.6307 18.16 63.0973 18.68C63.5773 19.1867 64.2573 19.44 65.1373 19.44C65.7773 19.44 66.3173 19.3 66.7573 19.02C67.1973 18.74 67.5707 18.36 67.8773 17.88L69.1573 19.14C68.7707 19.78 68.2107 20.2933 67.4773 20.68C66.744 21.0533 65.8907 21.24 64.9173 21.24ZM64.9173 12.06C64.544 12.06 64.1973 12.1267 63.8773 12.26C63.5707 12.3933 63.304 12.58 63.0773 12.82C62.864 13.06 62.6973 13.3467 62.5773 13.68C62.4573 14.0133 62.3973 14.38 62.3973 14.78V14.92H67.2373V14.72C67.2373 13.92 67.0307 13.28 66.6173 12.8C66.204 12.3067 65.6373 12.06 64.9173 12.06ZM74.8306 21C74.0706 21 73.4973 20.8067 73.1106 20.42C72.724 20.02 72.5306 19.46 72.5306 18.74V12.38H70.9106V10.6H71.7906C72.1506 10.6 72.3973 10.52 72.5306 10.36C72.6773 10.2 72.7506 9.94 72.7506 9.58V7.76H74.7106V10.6H76.8906V12.38H74.7106V19.22H76.7306V21H74.8306ZM83.2572 21.24C82.5372 21.24 81.8772 21.1133 81.2772 20.86C80.6905 20.6067 80.1905 20.2467 79.7772 19.78C79.3639 19.3 79.0439 18.7267 78.8172 18.06C78.5905 17.38 78.4772 16.6267 78.4772 15.8C78.4772 14.9733 78.5905 14.2267 78.8172 13.56C79.0439 12.88 79.3639 12.3067 79.7772 11.84C80.1905 11.36 80.6905 10.9933 81.2772 10.74C81.8772 10.4867 82.5372 10.36 83.2572 10.36C83.9772 10.36 84.6305 10.4867 85.2172 10.74C85.8172 10.9933 86.3239 11.36 86.7372 11.84C87.1505 12.3067 87.4705 12.88 87.6972 13.56C87.9239 14.2267 88.0372 14.9733 88.0372 15.8C88.0372 16.6267 87.9239 17.38 87.6972 18.06C87.4705 18.7267 87.1505 19.3 86.7372 19.78C86.3239 20.2467 85.8172 20.6067 85.2172 20.86C84.6305 21.1133 83.9772 21.24 83.2572 21.24ZM83.2572 19.44C84.0039 19.44 84.6039 19.2133 85.0572 18.76C85.5105 18.2933 85.7372 17.6 85.7372 16.68V14.92C85.7372 14 85.5105 13.3133 85.0572 12.86C84.6039 12.3933 84.0039 12.16 83.2572 12.16C82.5105 12.16 81.9105 12.3933 81.4572 12.86C81.0039 13.3133 80.7772 14 80.7772 14.92V16.68C80.7772 17.6 81.0039 18.2933 81.4572 18.76C81.9105 19.2133 82.5105 19.44 83.2572 19.44ZM90.4663 21V10.6H92.6463V12.32H92.7463C92.9729 11.76 93.3129 11.2933 93.7663 10.92C94.2329 10.5467 94.8663 10.36 95.6663 10.36C96.7329 10.36 97.5596 10.7133 98.1463 11.42C98.7463 12.1133 99.0463 13.1067 99.0463 14.4V21H96.8663V14.68C96.8663 13.0533 96.2129 12.24 94.9063 12.24C94.6263 12.24 94.3463 12.28 94.0663 12.36C93.7996 12.4267 93.5596 12.5333 93.3463 12.68C93.1329 12.8267 92.9596 13.0133 92.8263 13.24C92.7063 13.4667 92.6463 13.7333 92.6463 14.04V21H90.4663ZM106.408 14.48L104.488 16.68V21H102.228V7.04H104.488V14.12H104.568L106.568 11.58L110.328 7.04H112.968L107.988 12.92L113.368 21H110.648L106.408 14.48ZM118.843 21.24C118.096 21.24 117.43 21.1133 116.843 20.86C116.256 20.6067 115.756 20.2467 115.343 19.78C114.93 19.3 114.61 18.7267 114.383 18.06C114.17 17.38 114.063 16.6267 114.063 15.8C114.063 14.9733 114.17 14.2267 114.383 13.56C114.61 12.88 114.93 12.3067 115.343 11.84C115.756 11.36 116.256 10.9933 116.843 10.74C117.43 10.4867 118.096 10.36 118.843 10.36C119.603 10.36 120.27 10.4933 120.843 10.76C121.43 11.0267 121.916 11.4 122.303 11.88C122.69 12.3467 122.976 12.8933 123.163 13.52C123.363 14.1467 123.463 14.82 123.463 15.54V16.36H116.323V16.7C116.323 17.5 116.556 18.16 117.023 18.68C117.503 19.1867 118.183 19.44 119.063 19.44C119.703 19.44 120.243 19.3 120.683 19.02C121.123 18.74 121.496 18.36 121.803 17.88L123.083 19.14C122.696 19.78 122.136 20.2933 121.403 20.68C120.67 21.0533 119.816 21.24 118.843 21.24ZM118.843 12.06C118.47 12.06 118.123 12.1267 117.803 12.26C117.496 12.3933 117.23 12.58 117.003 12.82C116.79 13.06 116.623 13.3467 116.503 13.68C116.383 14.0133 116.323 14.38 116.323 14.78V14.92H121.163V14.72C121.163 13.92 120.956 13.28 120.543 12.8C120.13 12.3067 119.563 12.06 118.843 12.06ZM132.139 10.6H134.239L129.859 23.06C129.739 23.4067 129.599 23.7 129.439 23.94C129.293 24.1933 129.113 24.3933 128.899 24.54C128.699 24.7 128.453 24.8133 128.159 24.88C127.866 24.96 127.519 25 127.119 25H125.859V23.22H127.619L128.219 21.46L124.439 10.6H126.619L128.699 16.72L129.299 18.98H129.399L130.059 16.72L132.139 10.6Z" fill="black"/>
</svg>
